<svg width="10" height="13" viewBox="0 0 10 13" fill="none" xmlns="http://www.w3.org/2000/svg">
<path fill-rule="evenodd" clip-rule="evenodd" d="M1.53499 1.83503C2.45397 0.916055 3.70037 0.39978 4.99999 0.39978C6.29962 0.39978 7.54602 0.916055 8.46499 1.83503C9.38397 2.75401 9.90024 4.0004 9.90024 5.30003C9.90024 6.59966 9.38397 7.84606 8.46499 8.76503L4.99999 12.23L1.53499 8.76503C1.07993 8.31002 0.718957 7.76982 0.472678 7.17529C0.226399 6.58077 0.0996399 5.94355 0.0996399 5.30003C0.0996399 4.65651 0.226399 4.01929 0.472678 3.42477C0.718957 2.83024 1.07993 2.29004 1.53499 1.83503ZM4.99999 6.70003C5.3713 6.70003 5.72739 6.55253 5.98994 6.28998C6.25249 6.02743 6.39999 5.67133 6.39999 5.30003C6.39999 4.92873 6.25249 4.57263 5.98994 4.31008C5.72739 4.04753 5.3713 3.90003 4.99999 3.90003C4.62869 3.90003 4.2726 4.04753 4.01004 4.31008C3.74749 4.57263 3.59999 4.92873 3.59999 5.30003C3.59999 5.67133 3.74749 6.02743 4.01004 6.28998C4.2726 6.55253 4.62869 6.70003 4.99999 6.70003Z" fill="white"/>
</svg>
